# xmcd
#
# Track frame offsets:
#	150
#	12017
#	26565
#	51620
#	70877
#	87987
#	104640
#	118029
#	133540
#	151335
#	183672
#	202907
#	239102
#	255695
#	274727
#	291855
#	319065
#
# Disc length: 4651 seconds
#
# Revision: 3
# Processed by: cddbd v1.5.1PL0 Copyright (c) Steve Scherf et al.
# Submitted via: EasyCDDAExtractor 8.2.1.1
#
DISCID=00122911
DTITLE=Lou Reed - Different Times, Lou Reed In The '70s
DYEAR=1996
DGENRE=Blues
TTITLE0=I Can't Stand It
TTITLE1=Love Makes You Feel
TTITLE2=Lisa Says
TTITLE3=Walk On The Wild Side
TTITLE4=Perfect Day
TTITLE5=Satellite Of Love
TTITLE6=Vicious
TTITLE7=Berlin
TTITLE8=Caroline Says I
TTITLE9=Sad Song
TTITLE10=Caroline Says II
TTITLE11=Sweet Jane
TTITLE12=Kill Your Sons
TTITLE13=Sally Can't Dance
TTITLE14=A Gift
TTITLE15=She's My Best Friend
TTITLE16=Coney Island Baby
EXTD=
EXTT0=
EXTT1=
EXTT2=
EXTT3=
EXTT4=
EXTT5=
EXTT6=
EXTT7=
EXTT8=
EXTT9=
EXTT10=
EXTT11=
EXTT12=
EXTT13=
EXTT14=
EXTT15=
EXTT16=
PLAYORDER=
